<?xml version="1.0" encoding="utf-8"?>
<!-- Generator: Adobe Illustrator 16.0.0, SVG Export Plug-In . SVG Version: 6.00 Build 0)  -->
<!DOCTYPE svg PUBLIC "-//W3C//DTD SVG 1.1//EN" "http://www.w3.org/Graphics/SVG/1.1/DTD/svg11.dtd">
<svg version="1.1" xmlns="http://www.w3.org/2000/svg" xmlns:xlink="http://www.w3.org/1999/xlink" x="0px" y="0px" width="120px"
	 height="120px" viewBox="0 0 120 120" enable-background="new 0 0 120 120" xml:space="preserve">
<g id="圖層_1">
</g>
<g id="圖層_2">
</g>
<g id="圖層_3">
	<g>
		
			<rect x="21.113" y="20.802" transform="matrix(0.7867 0.6173 -0.6173 0.7867 49.8367 -24.2414)" fill="#FFFFFF" width="77.773" height="78.397"/>
		
			<rect x="23.083" y="22.787" transform="matrix(0.7867 0.6173 -0.6173 0.7867 49.835 -24.2414)" fill="#033B82" width="73.834" height="74.428"/>
		<path fill="#FFFFFF" d="M83.004,78.44c0,0-7.002,8.701-20.524-0.525c0,0-22.956-21.896-24.013-22.635
			c0,0-5.509-5.759,0.037-12.652c0,0,5.092-7.147,18.257,5.541c0,0,9.564,8.25,15.115,10.401
			C71.876,58.57,89.382,66.816,83.004,78.44z"/>
		
			<text transform="matrix(0.7811 0.6244 -0.6244 0.7811 46.9839 56.5537)" fill="#033B82" font-family="'BernardMT-Condensed'" font-size="11.0814">lippers</text>
		
			<rect x="10.447" y="69.854" transform="matrix(0.7811 0.6244 -0.6244 0.7811 52.665 -6.534)" fill="#FFFFFF" width="50.41" height="3.99"/>
		
			<rect x="60.493" y="51.037" transform="matrix(0.7812 0.6243 -0.6243 0.7812 51.3073 -40.4887)" fill="#FFFFFF" width="45.83" height="3.81"/>
	</g>
</g>
</svg>
