<?xml version="1.0" encoding="utf-8"?>
<!-- Generator: Adobe Illustrator 16.0.0, SVG Export Plug-In . SVG Version: 6.00 Build 0)  -->
<!DOCTYPE svg PUBLIC "-//W3C//DTD SVG 1.1//EN" "http://www.w3.org/Graphics/SVG/1.1/DTD/svg11.dtd">
<svg version="1.1" xmlns="http://www.w3.org/2000/svg" xmlns:xlink="http://www.w3.org/1999/xlink" x="0px" y="0px"
	 width="595.276px" height="595.28px" viewBox="0 0 595.276 595.28" enable-background="new 0 0 595.276 595.28"
	 xml:space="preserve">
<g id="圖層_1">
</g>
<g id="圖層_2">
</g>
<g id="圖層_3">
	<g>
		
			<rect x="114.902" y="113.438" transform="matrix(0.7867 0.6173 -0.6173 0.7867 247.214 -120.2535)" fill="#033B82" width="365.469" height="368.4"/>
		<path fill="#FFFFFF" d="M411.507,388.915c0,0-34.652,43.061-101.594-2.61c0,0-113.625-108.372-118.862-112.038
			c0,0-27.27-28.499,0.185-62.615c0,0,25.208-35.382,90.368,27.42c0,0,47.351,40.843,74.814,51.483
			C356.418,290.555,443.079,331.377,411.507,388.915z"/>
		
			<text transform="matrix(0.7811 0.6244 -0.6244 0.7811 233.2104 280.5684)" fill="#033B82" font-family="'BernardMT-Condensed'" font-size="54.8501">lippers</text>
		
			<rect x="52.361" y="346.405" transform="matrix(0.7811 0.6244 -0.6244 0.7811 261.2195 -32.6078)" fill="#FFFFFF" width="249.517" height="19.756"/>
		<polygon fill="#FFFFFF" points="496.203,340.873 319.009,199.25 330.789,184.52 507.976,326.143 		"/>
	</g>
</g>
</svg>
